P1
# SinisterBold - Lines - 8x8.me fill pattern.
8 8
0 0 0 1 0 0 0 1
0 0 1 0 0 0 1 0
0 1 0 0 0 1 0 0
1 0 0 0 1 0 0 0
0 0 0 1 0 0 0 1
0 0 1 0 0 0 1 0
0 1 0 0 0 1 0 0
1 0 0 0 1 0 0 0

# Dedicated to the Public Domain by ACED, licensed under CC0.
# https://creativecommons.org/publicdomain/zero/1.0/