P1
# VerticalDense - Lines - 8x8.me fill pattern.
8 8
0 1 0 1 0 1 0 1 
0 1 0 1 0 1 0 1 
0 1 0 1 0 1 0 1 
0 1 0 1 0 1 0 1 
0 1 0 1 0 1 0 1 
0 1 0 1 0 1 0 1 
0 1 0 1 0 1 0 1 
0 1 0 1 0 1 0 1 
