P1
# OfficeDither20 - Dither - 8x8.me fill pattern.
8 8
0 1 1 1 0 1 1 1 
1 1 1 1 1 1 1 1 
1 1 0 1 1 1 0 1 
1 1 1 1 1 1 1 1 
0 1 1 1 0 1 1 1 
1 1 1 1 1 1 1 1 
1 1 0 1 1 1 0 1 
1 1 1 1 1 1 1 1 
