P1
# Confetti - Dots - 8x8.me fill pattern.
8 8
1 1 0 1 1 1 1 1 
1 1 1 1 1 0 1 1 
0 1 1 1 1 1 1 1 
1 1 1 0 1 1 1 1 
1 1 1 1 1 1 1 0 
1 1 1 1 0 1 1 1 
1 0 1 1 1 1 1 1 
1 1 1 1 1 1 0 1 
