P1
# DexterSparseBold - Lines - 8x8.me fill pattern.
8 8
0 0 0 1 1 1 1 1 
1 0 0 0 1 1 1 1 
1 1 0 0 0 1 1 1 
1 1 1 0 0 0 1 1 
1 1 1 1 0 0 0 1 
1 1 1 1 1 0 0 0 
0 1 1 1 1 1 0 0 
0 0 1 1 1 1 1 0 
