P1
# BayerDither08 - Dither - 8x8.me fill pattern.
8 8
0 1 0 1 0 1 0 1 
1 0 1 0 1 0 1 0 
0 1 0 1 0 1 0 1 
1 0 1 0 1 0 1 0 
0 1 0 1 0 1 0 1 
1 0 1 0 1 0 1 0 
0 1 0 1 0 1 0 1 
1 0 1 0 1 0 1 0 
