P1
# Diamond - Checked - 8x8.me fill pattern.
8 8
1 1 1 0 1 1 1 1 
1 1 0 0 0 1 1 1 
1 0 0 0 0 0 1 1 
0 0 0 0 0 0 0 1 
1 0 0 0 0 0 1 1 
1 1 0 0 0 1 1 1 
1 1 1 0 1 1 1 1 
1 1 1 1 1 1 1 1 

# This work is dedicated to the Public Domain by ACED, licensed under CC0.
# https://creativecommons.org/publicdomain/zero/1.0/